<?xml version="1.0" encoding="utf-8"?>
<!-- Generator: Adobe Illustrator 25.0.1, SVG Export Plug-In . SVG Version: 6.00 Build 0)  -->
<svg version="1.1" id="图层_1" xmlns="http://www.w3.org/2000/svg" xmlns:xlink="http://www.w3.org/1999/xlink" x="0px" y="0px"
	 viewBox="0 0 48 48" style="enable-background:new 0 0 48 48;" xml:space="preserve">
<style type="text/css">
	.st0{fill:#333333;}
</style>
<g>
	<path class="st0" d="M17.1,8.1c-1.5-0.6-3-0.9-4.6-0.9c-0.4,0-0.7,0-1.1,0.1c-1.2,0.1-2,1-2,2.2v24.4c0,1.2,1,2.1,2.2,2.2
		c2.2,0.1,4,0.4,5.6,0.8c2,0.6,3.9,1.8,5.8,3.5V13C21.5,10.7,19.5,9.1,17.1,8.1z"/>
	<path class="st0" d="M11.4,38.2c-3-0.1-4.4-2.1-4.4-3.9V12.1c-1.2,0-2.3,1-2.3,2.2v22.1c0,1.7,1.6,4.2,4.5,4.2
		c2.5,0,2.8-0.2,4.6-0.2c2.2,0,4.8,0,7.3,0.5c-1.4-1.1-3.1-2-4.8-2.2C14.6,38.4,13.4,38.2,11.4,38.2z"/>
	<path class="st0" d="M40.9,12.1v22.2v0c0,2-1.8,3.8-4.3,3.9c-2,0.1-3.6,0.2-5,0.5c-1.3,0.3-3.4,1.1-4.8,2.2
		c2.5-0.6,5.2-0.5,7.2-0.5c2,0,2.2,0,4.6,0.2c3.4,0.3,4.5-2.5,4.5-4.2V14.2C43.2,13,42.2,12.1,40.9,12.1z"/>
	<polygon class="st0" points="35.5,7.2 35.5,7.2 35.5,7.2 	"/>
	<path class="st0" d="M36.5,35.9c1.2,0,2.2-1,2.2-2.2V9.4c0-1.1-0.9-2.1-2-2.2c-0.4,0-0.7-0.1-1.1-0.1c-1.6,0-3.1,0.3-4.6,0.9
		c-2.5,1-4.4,2.6-5.8,4.9v27.2c1.9-1.7,3.8-2.8,5.8-3.5C32.5,36.3,34.3,36,36.5,35.9z"/>
</g>
</svg>
